<svg xmlns="http://www.w3.org/2000/svg" width="1280" height="880" viewBox="0 0 1280 880"
     font-family="-apple-system, system-ui, sans-serif" fill="#fff" stroke="#000" stroke-width="1.5">
  <!-- PAP-670 rev2 nav before/after with destinations -->
  <rect x="0" y="0" width="1280" height="880" />
  <text x="48" y="56" font-size="28" text-anchor="start" stroke="none" fill="#000" font-weight="bold">PAP-670 — where every left-nav item goes</text>
  <text x="48" y="84" font-size="14" text-anchor="start" stroke="none" fill="#666">13 static nav rows become 11 — Search, Inbox and Workspaces leave — and Chat gains a first-class entry point. Dashboard keeps its own row.</text>
  <text x="48" y="104" font-size="12" text-anchor="start" stroke="none" fill="#666" font-weight="600" font-family="ui-monospace, SFMono-Regular, monospace">BEFORE</text>
  <rect x="48" y="112" width="256" height="688" rx="8" fill="#fff" stroke="#000" stroke-width="1.5" />
  <rect x="72" y="122" width="20" height="20" rx="4" fill="#e6e6e6" stroke="#000" stroke-width="1.5" />
  <text x="100" y="137" font-size="14" text-anchor="start" stroke="none" fill="#000" font-weight="bold">Paperclip</text>
  <path d="M264,129 l4,4 l4,-4" fill="none" stroke="#666" stroke-width="1.5" />
  <rect x="72" y="160" width="16" height="16" rx="3" fill="#fff" stroke="#000" stroke-width="1.5" />
  <text x="100" y="173" font-size="14" text-anchor="start" stroke="none" fill="#000">New Task</text>
  <rect x="72" y="192" width="16" height="16" rx="3" fill="#fff" stroke="#000" stroke-width="1.5" />
  <text x="100" y="205" font-size="14" text-anchor="start" stroke="none" fill="#000">Search</text>
  <rect x="56" y="184" width="240" height="32" rx="4" fill="none" stroke="#d33" stroke-width="1.5" stroke-dasharray="5 4" />
  <rect x="72" y="224" width="16" height="16" rx="3" fill="#fff" stroke="#000" stroke-width="1.5" />
  <text x="100" y="237" font-size="14" text-anchor="start" stroke="none" fill="#000">Dashboard</text>
  <rect x="254" y="225" width="26" height="14" rx="7" fill="#e6e6e6" stroke="#000" stroke-width="1.5" />
  <text x="267" y="236" font-size="12" text-anchor="middle" stroke="none" fill="#000">2</text>
  <rect x="72" y="256" width="16" height="16" rx="3" fill="#fff" stroke="#000" stroke-width="1.5" />
  <text x="100" y="269" font-size="14" text-anchor="start" stroke="none" fill="#000">Inbox</text>
  <rect x="254" y="257" width="26" height="14" rx="7" fill="#e6e6e6" stroke="#000" stroke-width="1.5" />
  <text x="267" y="268" font-size="12" text-anchor="middle" stroke="none" fill="#000">3</text>
  <rect x="56" y="248" width="240" height="32" rx="4" fill="none" stroke="#d33" stroke-width="1.5" stroke-dasharray="5 4" />
  <text x="72" y="296" font-size="12" text-anchor="start" stroke="none" fill="#666" font-weight="600" font-family="ui-monospace, SFMono-Regular, monospace">WORK</text>
  <rect x="72" y="312" width="16" height="16" rx="3" fill="#fff" stroke="#000" stroke-width="1.5" />
  <text x="100" y="325" font-size="14" text-anchor="start" stroke="none" fill="#000">Tasks</text>
  <rect x="72" y="344" width="16" height="16" rx="3" fill="#fff" stroke="#000" stroke-width="1.5" />
  <text x="100" y="357" font-size="14" text-anchor="start" stroke="none" fill="#000">Projects</text>
  <circle cx="96" cy="384" r="6" fill="#fff" stroke="#000" stroke-width="1.5" />
  <text x="116" y="389" font-size="14" text-anchor="start" stroke="none" fill="#666">Design System</text>
  <circle cx="96" cy="416" r="6" fill="#fff" stroke="#000" stroke-width="1.5" />
  <text x="116" y="421" font-size="14" text-anchor="start" stroke="none" fill="#666">Marketing site</text>
  <rect x="72" y="440" width="16" height="16" rx="3" fill="#fff" stroke="#000" stroke-width="1.5" />
  <text x="100" y="453" font-size="14" text-anchor="start" stroke="none" fill="#000">Routines</text>
  <rect x="72" y="472" width="16" height="16" rx="3" fill="#fff" stroke="#000" stroke-width="1.5" />
  <text x="100" y="485" font-size="14" text-anchor="start" stroke="none" fill="#000">Artifacts</text>
  <rect x="72" y="504" width="16" height="16" rx="3" fill="#fff" stroke="#000" stroke-width="1.5" />
  <text x="100" y="517" font-size="14" text-anchor="start" stroke="none" fill="#000">Workspaces</text>
  <rect x="56" y="496" width="240" height="32" rx="4" fill="none" stroke="#d33" stroke-width="1.5" stroke-dasharray="5 4" />
  <text x="72" y="544" font-size="12" text-anchor="start" stroke="none" fill="#666" font-weight="600" font-family="ui-monospace, SFMono-Regular, monospace">ORG</text>
  <rect x="72" y="560" width="16" height="16" rx="3" fill="#fff" stroke="#000" stroke-width="1.5" />
  <text x="100" y="573" font-size="14" text-anchor="start" stroke="none" fill="#000">Agents</text>
  <rect x="72" y="592" width="16" height="16" rx="3" fill="#fff" stroke="#000" stroke-width="1.5" />
  <text x="100" y="605" font-size="14" text-anchor="start" stroke="none" fill="#000">Skills</text>
  <rect x="72" y="624" width="16" height="16" rx="3" fill="#fff" stroke="#000" stroke-width="1.5" />
  <text x="100" y="637" font-size="14" text-anchor="start" stroke="none" fill="#000">Connectors</text>
  <rect x="72" y="656" width="16" height="16" rx="3" fill="#fff" stroke="#000" stroke-width="1.5" />
  <text x="100" y="669" font-size="14" text-anchor="start" stroke="none" fill="#000">Audit</text>
  <text x="72" y="696" font-size="12" text-anchor="start" stroke="none" fill="#666" font-weight="600" font-family="ui-monospace, SFMono-Regular, monospace">RECENT</text>
  <rect x="72" y="712" width="16" height="16" rx="3" fill="#fff" stroke="#000" stroke-width="1.5" />
  <text x="100" y="725" font-size="14" text-anchor="start" stroke="none" fill="#666">PAP-670 clean up left nav</text>
  <rect x="72" y="744" width="16" height="16" rx="3" fill="#fff" stroke="#000" stroke-width="1.5" />
  <text x="100" y="757" font-size="14" text-anchor="start" stroke="none" fill="#666">PAP-664 destructive token</text>
  <rect x="72" y="776" width="16" height="16" rx="3" fill="#fff" stroke="#000" stroke-width="1.5" />
  <text x="100" y="789" font-size="14" text-anchor="start" stroke="none" fill="#666">PAP-659 connectors UX</text>
  <text x="976" y="104" font-size="12" text-anchor="start" stroke="none" fill="#666" font-weight="600" font-family="ui-monospace, SFMono-Regular, monospace">AFTER</text>
  <rect x="976" y="112" width="256" height="688" rx="8" fill="#fff" stroke="#000" stroke-width="1.5" />
  <rect x="1000" y="122" width="20" height="20" rx="4" fill="#e6e6e6" stroke="#000" stroke-width="1.5" />
  <text x="1028" y="137" font-size="14" text-anchor="start" stroke="none" fill="#000" font-weight="bold">Paperclip</text>
  <path d="M1192,129 l4,4 l4,-4" fill="none" stroke="#666" stroke-width="1.5" />
  <rect x="1000" y="160" width="16" height="16" rx="3" fill="#fff" stroke="#000" stroke-width="1.5" />
  <text x="1028" y="173" font-size="14" text-anchor="start" stroke="none" fill="#000">New Task</text>
  <rect x="1180" y="154" width="28" height="28" rx="6" fill="#fff" stroke="#000" stroke-width="1.5" />
  <rect x="1186" y="160" width="16" height="16" rx="3" fill="#fff" stroke="#000" stroke-width="1.5" />
  <rect x="1176" y="152" width="32" height="32" rx="4" fill="none" stroke="#d33" stroke-width="1.5" stroke-dasharray="5 4" />
  <rect x="1000" y="192" width="16" height="16" rx="3" fill="#fff" stroke="#000" stroke-width="1.5" />
  <text x="1028" y="205" font-size="14" text-anchor="start" stroke="none" fill="#000">Dashboard</text>
  <rect x="1182" y="193" width="26" height="14" rx="7" fill="#e6e6e6" stroke="#000" stroke-width="1.5" />
  <text x="1195" y="204" font-size="12" text-anchor="middle" stroke="none" fill="#000">2</text>
  <text x="1000" y="240" font-size="12" text-anchor="start" stroke="none" fill="#666" font-weight="600" font-family="ui-monospace, SFMono-Regular, monospace">WORK</text>
  <rect x="1000" y="256" width="16" height="16" rx="3" fill="#fff" stroke="#000" stroke-width="1.5" />
  <text x="1028" y="269" font-size="14" text-anchor="start" stroke="none" fill="#000">Chat</text>
  <rect x="984" y="248" width="240" height="32" rx="4" fill="none" stroke="#d33" stroke-width="1.5" stroke-dasharray="5 4" />
  <rect x="984" y="280" width="240" height="32" rx="6" fill="#e6e6e6" stroke="#000" stroke-width="1.5" />
  <rect x="1000" y="288" width="16" height="16" rx="3" fill="#fff" stroke="#000" stroke-width="1.5" />
  <text x="1028" y="301" font-size="14" text-anchor="start" stroke="none" fill="#000" font-weight="600">Tasks</text>
  <rect x="1182" y="289" width="26" height="14" rx="7" fill="#e6e6e6" stroke="#000" stroke-width="1.5" />
  <text x="1195" y="300" font-size="12" text-anchor="middle" stroke="none" fill="#000">3</text>
  <rect x="1000" y="320" width="16" height="16" rx="3" fill="#fff" stroke="#000" stroke-width="1.5" />
  <text x="1028" y="333" font-size="14" text-anchor="start" stroke="none" fill="#000">Projects</text>
  <circle cx="1024" cy="360" r="6" fill="#fff" stroke="#000" stroke-width="1.5" />
  <text x="1044" y="365" font-size="14" text-anchor="start" stroke="none" fill="#666">Design System</text>
  <circle cx="1024" cy="392" r="6" fill="#fff" stroke="#000" stroke-width="1.5" />
  <text x="1044" y="397" font-size="14" text-anchor="start" stroke="none" fill="#666">Marketing site</text>
  <rect x="1000" y="416" width="16" height="16" rx="3" fill="#fff" stroke="#000" stroke-width="1.5" />
  <text x="1028" y="429" font-size="14" text-anchor="start" stroke="none" fill="#000">Routines</text>
  <rect x="1000" y="448" width="16" height="16" rx="3" fill="#fff" stroke="#000" stroke-width="1.5" />
  <text x="1028" y="461" font-size="14" text-anchor="start" stroke="none" fill="#000">Artifacts</text>
  <text x="1000" y="488" font-size="12" text-anchor="start" stroke="none" fill="#666" font-weight="600" font-family="ui-monospace, SFMono-Regular, monospace">ORG</text>
  <rect x="1000" y="512" width="16" height="16" rx="3" fill="#fff" stroke="#000" stroke-width="1.5" />
  <text x="1028" y="525" font-size="14" text-anchor="start" stroke="none" fill="#000">Agents</text>
  <rect x="1000" y="544" width="16" height="16" rx="3" fill="#fff" stroke="#000" stroke-width="1.5" />
  <text x="1028" y="557" font-size="14" text-anchor="start" stroke="none" fill="#000">Skills</text>
  <rect x="1000" y="576" width="16" height="16" rx="3" fill="#fff" stroke="#000" stroke-width="1.5" />
  <text x="1028" y="589" font-size="14" text-anchor="start" stroke="none" fill="#000">Connectors</text>
  <rect x="1000" y="608" width="16" height="16" rx="3" fill="#fff" stroke="#000" stroke-width="1.5" />
  <text x="1028" y="621" font-size="14" text-anchor="start" stroke="none" fill="#000">Audit</text>
  <text x="1000" y="648" font-size="12" text-anchor="start" stroke="none" fill="#666" font-weight="600" font-family="ui-monospace, SFMono-Regular, monospace">RECENT</text>
  <rect x="1000" y="672" width="16" height="16" rx="3" fill="#fff" stroke="#000" stroke-width="1.5" />
  <text x="1028" y="685" font-size="14" text-anchor="start" stroke="none" fill="#666">PAP-670 clean up left nav</text>
  <rect x="1000" y="704" width="16" height="16" rx="3" fill="#fff" stroke="#000" stroke-width="1.5" />
  <text x="1028" y="717" font-size="14" text-anchor="start" stroke="none" fill="#666">PAP-664 destructive token</text>
  <rect x="1000" y="736" width="16" height="16" rx="3" fill="#fff" stroke="#000" stroke-width="1.5" />
  <text x="1028" y="749" font-size="14" text-anchor="start" stroke="none" fill="#666">PAP-659 connectors UX</text>
  <rect x="400" y="176" width="512" height="88" rx="8" fill="#fff" stroke="#000" stroke-width="1.5" />
  <text x="420" y="210" font-size="14" text-anchor="start" stroke="none" fill="#000" font-weight="600">Search  →  icon button in the New Task row + ⌘K palette</text>
  <text x="420" y="234" font-size="12" text-anchor="start" stroke="none" fill="#666">/search page stays; the command palette and the Tasks toolbar search cover the rest.</text>
  <rect x="400" y="312" width="512" height="88" rx="8" fill="#fff" stroke="#000" stroke-width="1.5" />
  <text x="420" y="346" font-size="14" text-anchor="start" stroke="none" fill="#000" font-weight="600">Inbox  →  a view inside Tasks</text>
  <text x="420" y="370" font-size="12" text-anchor="start" stroke="none" fill="#666">/inbox/{mine,recent,unread,blocked,all} redirect to /issues?view=…</text>
  <rect x="400" y="448" width="512" height="88" rx="8" fill="#fff" stroke="#000" stroke-width="1.5" />
  <text x="420" y="482" font-size="14" text-anchor="start" stroke="none" fill="#000" font-weight="600">Workspaces  →  organisation menu + project detail</text>
  <text x="420" y="506" font-size="12" text-anchor="start" stroke="none" fill="#666">/workspaces unchanged; also reachable at /projects/:id/workspaces.</text>
  <rect x="400" y="600" width="512" height="88" rx="8" fill="#fff" stroke="#000" stroke-width="1.5" />
  <text x="420" y="634" font-size="14" text-anchor="start" stroke="none" fill="#000" font-weight="600">Chat  ←  NEW first item under Work</text>
  <text x="420" y="658" font-size="12" text-anchor="start" stroke="none" fill="#666">New /chats landing: agent picker + recent conversations.</text>
  <line x1="312" y1="200" x2="392" y2="220" stroke="#d33" stroke-width="1.5" stroke-dasharray="5 4" />
  <path d="M392.0,220.0 L383.3,222.3 L385.4,213.9 Z" fill="#d33" stroke="none" />
  <line x1="312" y1="264" x2="392" y2="356" stroke="#d33" stroke-width="1.5" stroke-dasharray="5 4" />
  <path d="M392.0,356.0 L383.6,352.9 L390.1,347.2 Z" fill="#d33" stroke="none" />
  <line x1="312" y1="512" x2="392" y2="492" stroke="#d33" stroke-width="1.5" stroke-dasharray="5 4" />
  <path d="M392.0,492.0 L385.4,498.1 L383.3,489.7 Z" fill="#d33" stroke="none" />
  <line x1="920" y1="220" x2="968" y2="168" stroke="#d33" stroke-width="1.5" stroke-dasharray="5 4" />
  <path d="M968.0,168.0 L965.8,176.7 L959.5,170.9 Z" fill="#d33" stroke="none" />
  <line x1="920" y1="356" x2="968" y2="296" stroke="#d33" stroke-width="1.5" stroke-dasharray="5 4" />
  <path d="M968.0,296.0 L966.4,304.9 L959.7,299.5 Z" fill="#d33" stroke="none" />
  <line x1="920" y1="492" x2="968" y2="120" stroke="#d33" stroke-width="1.5" stroke-dasharray="5 4" />
  <path d="M968.0,120.0 L971.3,128.4 L962.7,127.3 Z" fill="#d33" stroke="none" />
  <line x1="920" y1="644" x2="968" y2="264" stroke="#d33" stroke-width="1.5" stroke-dasharray="5 4" />
  <path d="M968.0,264.0 L971.3,272.4 L962.7,271.3 Z" fill="#d33" stroke="none" />
  <line x1="312" y1="232" x2="328" y2="232" stroke="#666" stroke-width="1.5" stroke-dasharray="2 4" />
  <line x1="328" y1="232" x2="328" y2="744" stroke="#666" stroke-width="1.5" stroke-dasharray="2 4" />
  <line x1="328" y1="744" x2="952" y2="744" stroke="#666" stroke-width="1.5" stroke-dasharray="2 4" />
  <line x1="952" y1="744" x2="952" y2="200" stroke="#666" stroke-width="1.5" stroke-dasharray="2 4" />
  <line x1="952" y1="200" x2="968" y2="200" stroke="#666" stroke-width="1.5" />
  <path d="M968.0,200.0 L960.1,204.3 L960.1,195.7 Z" fill="#666" stroke="none" />
  <text x="420" y="732" font-size="12" text-anchor="start" stroke="none" fill="#666">Dashboard stays where it is — its own row, directly below New Task.</text>
  <text x="48" y="836" font-size="12" text-anchor="start" stroke="none" fill="#666">Unchanged: New Task · Dashboard · Projects + starred · Routines · Artifacts · Agents · Skills · Connectors · Audit · Recent tasks · account bar.</text>
  <text x="48" y="860" font-size="12" text-anchor="start" stroke="none" fill="#666">Every current URL keeps working — nothing is deleted, only demoted out of the nav.</text>
</svg>
