<svg xmlns="http://www.w3.org/2000/svg" width="1280" height="800" viewBox="0 0 1280 800"
     font-family="-apple-system, system-ui, sans-serif" fill="#fff" stroke="#000" stroke-width="1.5">
  <!-- PAP-670 rev2 organisation menu takes Workspaces only (desktop) -->
  <rect x="0" y="0" width="1280" height="800" />
  <rect x="0" y="0" width="240" height="800" rx="0" fill="#fff" stroke="#000" stroke-width="1.5" />
  <rect x="24" y="18" width="20" height="20" rx="4" fill="#e6e6e6" stroke="#000" stroke-width="1.5" />
  <text x="52" y="33" font-size="14" text-anchor="start" stroke="none" fill="#000" font-weight="bold">Paperclip</text>
  <path d="M200,25 l4,4 l4,-4" fill="none" stroke="#666" stroke-width="1.5" />
  <rect x="24" y="72" width="16" height="16" rx="3" fill="#fff" stroke="#000" stroke-width="1.5" />
  <text x="52" y="85" font-size="14" text-anchor="start" stroke="none" fill="#000">New Task</text>
  <rect x="188" y="66" width="28" height="28" rx="6" fill="#fff" stroke="#000" stroke-width="1.5" />
  <rect x="194" y="72" width="16" height="16" rx="3" fill="#fff" stroke="#000" stroke-width="1.5" />
  <rect x="24" y="104" width="16" height="16" rx="3" fill="#fff" stroke="#000" stroke-width="1.5" />
  <text x="52" y="117" font-size="14" text-anchor="start" stroke="none" fill="#000">Dashboard</text>
  <rect x="190" y="105" width="26" height="14" rx="7" fill="#e6e6e6" stroke="#000" stroke-width="1.5" />
  <text x="203" y="116" font-size="12" text-anchor="middle" stroke="none" fill="#000">2</text>
  <text x="24" y="152" font-size="12" text-anchor="start" stroke="none" fill="#666" font-weight="600" font-family="ui-monospace, SFMono-Regular, monospace">WORK</text>
  <rect x="24" y="168" width="16" height="16" rx="3" fill="#fff" stroke="#000" stroke-width="1.5" />
  <text x="52" y="181" font-size="14" text-anchor="start" stroke="none" fill="#000">Chat</text>
  <rect x="8" y="192" width="224" height="32" rx="6" fill="#e6e6e6" stroke="#000" stroke-width="1.5" />
  <rect x="24" y="200" width="16" height="16" rx="3" fill="#fff" stroke="#000" stroke-width="1.5" />
  <text x="52" y="213" font-size="14" text-anchor="start" stroke="none" fill="#000" font-weight="600">Tasks</text>
  <rect x="190" y="201" width="26" height="14" rx="7" fill="#e6e6e6" stroke="#000" stroke-width="1.5" />
  <text x="203" y="212" font-size="12" text-anchor="middle" stroke="none" fill="#000">3</text>
  <rect x="24" y="232" width="16" height="16" rx="3" fill="#fff" stroke="#000" stroke-width="1.5" />
  <text x="52" y="245" font-size="14" text-anchor="start" stroke="none" fill="#000">Projects</text>
  <circle cx="48" cy="272" r="6" fill="#fff" stroke="#000" stroke-width="1.5" />
  <text x="68" y="277" font-size="14" text-anchor="start" stroke="none" fill="#666">Design System</text>
  <circle cx="48" cy="304" r="6" fill="#fff" stroke="#000" stroke-width="1.5" />
  <text x="68" y="309" font-size="14" text-anchor="start" stroke="none" fill="#666">Marketing site</text>
  <rect x="24" y="328" width="16" height="16" rx="3" fill="#fff" stroke="#000" stroke-width="1.5" />
  <text x="52" y="341" font-size="14" text-anchor="start" stroke="none" fill="#000">Routines</text>
  <rect x="24" y="360" width="16" height="16" rx="3" fill="#fff" stroke="#000" stroke-width="1.5" />
  <text x="52" y="373" font-size="14" text-anchor="start" stroke="none" fill="#000">Artifacts</text>
  <text x="24" y="400" font-size="12" text-anchor="start" stroke="none" fill="#666" font-weight="600" font-family="ui-monospace, SFMono-Regular, monospace">ORG</text>
  <rect x="24" y="424" width="16" height="16" rx="3" fill="#fff" stroke="#000" stroke-width="1.5" />
  <text x="52" y="437" font-size="14" text-anchor="start" stroke="none" fill="#000">Agents</text>
  <rect x="24" y="456" width="16" height="16" rx="3" fill="#fff" stroke="#000" stroke-width="1.5" />
  <text x="52" y="469" font-size="14" text-anchor="start" stroke="none" fill="#000">Skills</text>
  <rect x="24" y="488" width="16" height="16" rx="3" fill="#fff" stroke="#000" stroke-width="1.5" />
  <text x="52" y="501" font-size="14" text-anchor="start" stroke="none" fill="#000">Connectors</text>
  <rect x="24" y="520" width="16" height="16" rx="3" fill="#fff" stroke="#000" stroke-width="1.5" />
  <text x="52" y="533" font-size="14" text-anchor="start" stroke="none" fill="#000">Audit</text>
  <text x="24" y="560" font-size="12" text-anchor="start" stroke="none" fill="#666" font-weight="600" font-family="ui-monospace, SFMono-Regular, monospace">RECENT</text>
  <rect x="24" y="584" width="16" height="16" rx="3" fill="#fff" stroke="#000" stroke-width="1.5" />
  <text x="52" y="597" font-size="14" text-anchor="start" stroke="none" fill="#666">PAP-670 clean up left nav</text>
  <rect x="24" y="616" width="16" height="16" rx="3" fill="#fff" stroke="#000" stroke-width="1.5" />
  <text x="52" y="629" font-size="14" text-anchor="start" stroke="none" fill="#666">PAP-664 destructive token</text>
  <rect x="24" y="648" width="16" height="16" rx="3" fill="#fff" stroke="#000" stroke-width="1.5" />
  <text x="52" y="661" font-size="14" text-anchor="start" stroke="none" fill="#666">PAP-659 connectors UX</text>
  <rect x="0" y="744" width="240" height="56" rx="0" fill="#e6e6e6" stroke="#000" stroke-width="1.5" />
  <circle cx="32" cy="772" r="10" fill="#e6e6e6" stroke="#000" stroke-width="1.5" />
  <text x="52" y="777" font-size="14" text-anchor="start" stroke="none" fill="#000">Scott</text>
  <line x1="240" y1="0" x2="240" y2="800" stroke="#000" stroke-width="1.5" />
  <text x="288" y="48" font-size="20" text-anchor="start" stroke="none" fill="#000" font-weight="bold">Tasks</text>
  <rect x="288" y="80" width="168" height="32" rx="6" fill="#fff" stroke="#000" stroke-width="1.5" />
  <rect x="300" y="88" width="16" height="16" rx="3" fill="#fff" stroke="#000" stroke-width="1.5" />
  <text x="328" y="101" font-size="14" text-anchor="start" stroke="none" fill="#000" font-weight="600">Views: Mine</text>
  <path d="M436,94 l4,4 l4,-4" fill="none" stroke="#666" stroke-width="1.5" />
  <rect x="472" y="80" width="88" height="32" rx="6" fill="#fff" stroke="#000" stroke-width="1.5" />
  <text x="516" y="101" font-size="14" text-anchor="middle" stroke="none" fill="#000">+ New</text>
  <rect x="584" y="80" width="280" height="32" rx="6" fill="#fff" stroke="#000" stroke-width="1.5" />
  <rect x="596" y="88" width="16" height="16" rx="3" fill="#fff" stroke="#000" stroke-width="1.5" />
  <text x="624" y="101" font-size="14" text-anchor="start" stroke="none" fill="#666">Search tasks…</text>
  <rect x="936" y="80" width="80" height="32" rx="6" fill="#fff" stroke="#000" stroke-width="1.5" />
  <text x="976" y="101" font-size="12" text-anchor="middle" stroke="none" fill="#666">Filter</text>
  <rect x="1024" y="80" width="80" height="32" rx="6" fill="#fff" stroke="#000" stroke-width="1.5" />
  <text x="1064" y="101" font-size="12" text-anchor="middle" stroke="none" fill="#666">Sort</text>
  <rect x="1112" y="80" width="80" height="32" rx="6" fill="#fff" stroke="#000" stroke-width="1.5" />
  <text x="1152" y="101" font-size="12" text-anchor="middle" stroke="none" fill="#666">Group</text>
  <rect x="1208" y="80" width="48" height="32" rx="6" fill="#fff" stroke="#000" stroke-width="1.5" />
  <rect x="1220" y="88" width="16" height="16" rx="3" fill="#fff" stroke="#000" stroke-width="1.5" />
  <line x1="288" y1="152" x2="1256" y2="152" stroke="#666" stroke-width="1" />
  <circle cx="320" cy="176" r="7" fill="#fff" stroke="#000" stroke-width="1.5" />
  <text x="344" y="173" font-size="14" text-anchor="start" stroke="none" fill="#000">PAP-6xx task title</text>
  <text x="344" y="190" font-size="12" text-anchor="start" stroke="none" fill="#666">assigned to me · in progress</text>
  <circle cx="1104" cy="176" r="9" fill="#e6e6e6" stroke="#000" stroke-width="1.5" />
  <text x="1248" y="180" font-size="12" text-anchor="end" stroke="none" fill="#666">2h</text>
  <line x1="288" y1="200" x2="1256" y2="200" stroke="#666" stroke-width="1" />
  <circle cx="320" cy="224" r="7" fill="#fff" stroke="#000" stroke-width="1.5" />
  <text x="344" y="221" font-size="14" text-anchor="start" stroke="none" fill="#000">PAP-6xx task title</text>
  <text x="344" y="238" font-size="12" text-anchor="start" stroke="none" fill="#666">assigned to me · in progress</text>
  <circle cx="1104" cy="224" r="9" fill="#e6e6e6" stroke="#000" stroke-width="1.5" />
  <text x="1248" y="228" font-size="12" text-anchor="end" stroke="none" fill="#666">2h</text>
  <line x1="288" y1="248" x2="1256" y2="248" stroke="#666" stroke-width="1" />
  <circle cx="320" cy="272" r="7" fill="#fff" stroke="#000" stroke-width="1.5" />
  <text x="344" y="269" font-size="14" text-anchor="start" stroke="none" fill="#000">PAP-6xx task title</text>
  <text x="344" y="286" font-size="12" text-anchor="start" stroke="none" fill="#666">assigned to me · in progress</text>
  <circle cx="1104" cy="272" r="9" fill="#e6e6e6" stroke="#000" stroke-width="1.5" />
  <text x="1248" y="276" font-size="12" text-anchor="end" stroke="none" fill="#666">2h</text>
  <line x1="288" y1="296" x2="1256" y2="296" stroke="#666" stroke-width="1" />
  <circle cx="320" cy="320" r="7" fill="#fff" stroke="#000" stroke-width="1.5" />
  <text x="344" y="317" font-size="14" text-anchor="start" stroke="none" fill="#000">PAP-6xx task title</text>
  <text x="344" y="334" font-size="12" text-anchor="start" stroke="none" fill="#666">assigned to me · in progress</text>
  <circle cx="1104" cy="320" r="9" fill="#e6e6e6" stroke="#000" stroke-width="1.5" />
  <text x="1248" y="324" font-size="12" text-anchor="end" stroke="none" fill="#666">2h</text>
  <line x1="288" y1="344" x2="1256" y2="344" stroke="#666" stroke-width="1" />
  <circle cx="320" cy="368" r="7" fill="#fff" stroke="#000" stroke-width="1.5" />
  <text x="344" y="365" font-size="14" text-anchor="start" stroke="none" fill="#000">PAP-6xx task title</text>
  <text x="344" y="382" font-size="12" text-anchor="start" stroke="none" fill="#666">assigned to me · in progress</text>
  <circle cx="1104" cy="368" r="9" fill="#e6e6e6" stroke="#000" stroke-width="1.5" />
  <text x="1248" y="372" font-size="12" text-anchor="end" stroke="none" fill="#666">2h</text>
  <line x1="288" y1="392" x2="1256" y2="392" stroke="#666" stroke-width="1" />
  <circle cx="320" cy="416" r="7" fill="#fff" stroke="#000" stroke-width="1.5" />
  <text x="344" y="413" font-size="14" text-anchor="start" stroke="none" fill="#000">PAP-6xx task title</text>
  <text x="344" y="430" font-size="12" text-anchor="start" stroke="none" fill="#666">assigned to me · in progress</text>
  <circle cx="1104" cy="416" r="9" fill="#e6e6e6" stroke="#000" stroke-width="1.5" />
  <text x="1248" y="420" font-size="12" text-anchor="end" stroke="none" fill="#666">2h</text>
  <line x1="288" y1="440" x2="1256" y2="440" stroke="#666" stroke-width="1" />
  <circle cx="320" cy="464" r="7" fill="#fff" stroke="#000" stroke-width="1.5" />
  <text x="344" y="461" font-size="14" text-anchor="start" stroke="none" fill="#000">PAP-6xx task title</text>
  <text x="344" y="478" font-size="12" text-anchor="start" stroke="none" fill="#666">assigned to me · in progress</text>
  <circle cx="1104" cy="464" r="9" fill="#e6e6e6" stroke="#000" stroke-width="1.5" />
  <text x="1248" y="468" font-size="12" text-anchor="end" stroke="none" fill="#666">2h</text>
  <line x1="288" y1="488" x2="1256" y2="488" stroke="#666" stroke-width="1" />
  <circle cx="320" cy="512" r="7" fill="#fff" stroke="#000" stroke-width="1.5" />
  <text x="344" y="509" font-size="14" text-anchor="start" stroke="none" fill="#000">PAP-6xx task title</text>
  <text x="344" y="526" font-size="12" text-anchor="start" stroke="none" fill="#666">assigned to me · in progress</text>
  <circle cx="1104" cy="512" r="9" fill="#e6e6e6" stroke="#000" stroke-width="1.5" />
  <text x="1248" y="516" font-size="12" text-anchor="end" stroke="none" fill="#666">2h</text>
  <rect x="16" y="56" width="320" height="400" rx="10" fill="#fff" stroke="#000" stroke-width="1.5" />
  <text x="32" y="88" font-size="12" text-anchor="start" stroke="none" fill="#666" font-weight="600" font-family="ui-monospace, SFMono-Regular, monospace">ORGANISATIONS</text>
  <rect x="24" y="96" width="304" height="40" rx="6" fill="#e6e6e6" stroke="#000" stroke-width="1.5" />
  <rect x="36" y="106" width="20" height="20" rx="4" fill="#e6e6e6" stroke="#000" stroke-width="1.5" />
  <text x="68" y="121" font-size="14" text-anchor="start" stroke="none" fill="#000" font-weight="600">Paperclip</text>
  <text x="308" y="121" font-size="14" text-anchor="start" stroke="none" fill="#000">✓</text>
  <rect x="36" y="146" width="20" height="20" rx="4" fill="#e6e6e6" stroke="#000" stroke-width="1.5" />
  <text x="68" y="161" font-size="14" text-anchor="start" stroke="none" fill="#000">Acme Robotics</text>
  <rect x="36" y="186" width="20" height="20" rx="4" fill="#e6e6e6" stroke="#000" stroke-width="1.5" />
  <text x="68" y="201" font-size="14" text-anchor="start" stroke="none" fill="#000">Side project</text>
  <line x1="16" y1="224" x2="336" y2="224" stroke="#666" stroke-width="1" />
  <rect x="36" y="242" width="16" height="16" rx="3" fill="#fff" stroke="#000" stroke-width="1.5" />
  <text x="68" y="254" font-size="14" text-anchor="start" stroke="none" fill="#000">Workspaces</text>
  <text x="68" y="270" font-size="12" text-anchor="start" stroke="none" fill="#666">isolated execution workspaces</text>
  <line x1="16" y1="288" x2="336" y2="288" stroke="#666" stroke-width="1" />
  <rect x="36" y="306" width="16" height="16" rx="3" fill="#fff" stroke="#000" stroke-width="1.5" />
  <text x="68" y="320" font-size="14" text-anchor="start" stroke="none" fill="#000">Create organisation</text>
  <rect x="36" y="342" width="16" height="16" rx="3" fill="#fff" stroke="#000" stroke-width="1.5" />
  <text x="68" y="356" font-size="14" text-anchor="start" stroke="none" fill="#000">Invite people to Paperclip</text>
  <rect x="36" y="378" width="16" height="16" rx="3" fill="#fff" stroke="#000" stroke-width="1.5" />
  <text x="68" y="392" font-size="14" text-anchor="start" stroke="none" fill="#000">Settings</text>
  <rect x="36" y="414" width="16" height="16" rx="3" fill="#fff" stroke="#000" stroke-width="1.5" />
  <text x="68" y="428" font-size="14" text-anchor="start" stroke="none" fill="#000">Sign out</text>
  <rect x="24" y="224" width="304" height="48" rx="4" fill="none" stroke="#d33" stroke-width="1.5" stroke-dasharray="5 4" />
  <circle cx="340" cy="88" r="11" fill="#fff" stroke="#d33" stroke-width="1.5" />
  <text x="340" y="92" font-size="12" text-anchor="middle" stroke="none" fill="#d33" font-weight="bold">1</text>
  <circle cx="340" cy="248" r="11" fill="#fff" stroke="#d33" stroke-width="1.5" />
  <text x="340" y="252" font-size="12" text-anchor="middle" stroke="none" fill="#d33" font-weight="bold">2</text>
  <circle cx="340" cy="400" r="11" fill="#fff" stroke="#d33" stroke-width="1.5" />
  <text x="340" y="404" font-size="12" text-anchor="middle" stroke="none" fill="#d33" font-weight="bold">3</text>
</svg>
