<svg xmlns="http://www.w3.org/2000/svg" width="1280" height="800" viewBox="0 0 1280 800"
     font-family="-apple-system, system-ui, sans-serif" fill="#fff" stroke="#000" stroke-width="1.5">
  <!-- PAP-670 rev3 combined Tasks, default view = last used (desktop) -->
  <rect x="0" y="0" width="1280" height="800" />
  <rect x="0" y="0" width="240" height="800" rx="0" fill="#fff" stroke="#000" stroke-width="1.5" />
  <rect x="24" y="18" width="20" height="20" rx="4" fill="#e6e6e6" stroke="#000" stroke-width="1.5" />
  <text x="52" y="33" font-size="14" text-anchor="start" stroke="none" fill="#000" font-weight="bold">Paperclip</text>
  <path d="M200,25 l4,4 l4,-4" fill="none" stroke="#666" stroke-width="1.5" />
  <rect x="24" y="72" width="16" height="16" rx="3" fill="#fff" stroke="#000" stroke-width="1.5" />
  <text x="52" y="85" font-size="14" text-anchor="start" stroke="none" fill="#000">New Task</text>
  <rect x="24" y="104" width="16" height="16" rx="3" fill="#fff" stroke="#000" stroke-width="1.5" />
  <text x="52" y="117" font-size="14" text-anchor="start" stroke="none" fill="#000">Search</text>
  <rect x="24" y="136" width="16" height="16" rx="3" fill="#fff" stroke="#000" stroke-width="1.5" />
  <text x="52" y="149" font-size="14" text-anchor="start" stroke="none" fill="#000">Dashboard</text>
  <rect x="190" y="137" width="26" height="14" rx="7" fill="#e6e6e6" stroke="#000" stroke-width="1.5" />
  <text x="203" y="148" font-size="12" text-anchor="middle" stroke="none" fill="#000">2</text>
  <text x="24" y="184" font-size="12" text-anchor="start" stroke="none" fill="#666" font-weight="600" font-family="ui-monospace, SFMono-Regular, monospace">WORK</text>
  <rect x="24" y="200" width="16" height="16" rx="3" fill="#fff" stroke="#000" stroke-width="1.5" />
  <text x="52" y="213" font-size="14" text-anchor="start" stroke="none" fill="#000">Chat</text>
  <rect x="8" y="224" width="224" height="32" rx="6" fill="#e6e6e6" stroke="#000" stroke-width="1.5" />
  <rect x="24" y="232" width="16" height="16" rx="3" fill="#fff" stroke="#000" stroke-width="1.5" />
  <text x="52" y="245" font-size="14" text-anchor="start" stroke="none" fill="#000" font-weight="600">Tasks</text>
  <rect x="190" y="233" width="26" height="14" rx="7" fill="#e6e6e6" stroke="#000" stroke-width="1.5" />
  <text x="203" y="244" font-size="12" text-anchor="middle" stroke="none" fill="#000">3</text>
  <rect x="24" y="264" width="16" height="16" rx="3" fill="#fff" stroke="#000" stroke-width="1.5" />
  <text x="52" y="277" font-size="14" text-anchor="start" stroke="none" fill="#000">Projects</text>
  <circle cx="48" cy="304" r="6" fill="#fff" stroke="#000" stroke-width="1.5" />
  <text x="68" y="309" font-size="14" text-anchor="start" stroke="none" fill="#666">Design System</text>
  <circle cx="48" cy="336" r="6" fill="#fff" stroke="#000" stroke-width="1.5" />
  <text x="68" y="341" font-size="14" text-anchor="start" stroke="none" fill="#666">Marketing site</text>
  <rect x="24" y="360" width="16" height="16" rx="3" fill="#fff" stroke="#000" stroke-width="1.5" />
  <text x="52" y="373" font-size="14" text-anchor="start" stroke="none" fill="#000">Routines</text>
  <rect x="24" y="392" width="16" height="16" rx="3" fill="#fff" stroke="#000" stroke-width="1.5" />
  <text x="52" y="405" font-size="14" text-anchor="start" stroke="none" fill="#000">Artifacts</text>
  <text x="24" y="432" font-size="12" text-anchor="start" stroke="none" fill="#666" font-weight="600" font-family="ui-monospace, SFMono-Regular, monospace">ORG</text>
  <rect x="24" y="456" width="16" height="16" rx="3" fill="#fff" stroke="#000" stroke-width="1.5" />
  <text x="52" y="469" font-size="14" text-anchor="start" stroke="none" fill="#000">Agents</text>
  <rect x="24" y="488" width="16" height="16" rx="3" fill="#fff" stroke="#000" stroke-width="1.5" />
  <text x="52" y="501" font-size="14" text-anchor="start" stroke="none" fill="#000">Skills</text>
  <rect x="24" y="520" width="16" height="16" rx="3" fill="#fff" stroke="#000" stroke-width="1.5" />
  <text x="52" y="533" font-size="14" text-anchor="start" stroke="none" fill="#000">Connectors</text>
  <rect x="24" y="552" width="16" height="16" rx="3" fill="#fff" stroke="#000" stroke-width="1.5" />
  <text x="52" y="565" font-size="14" text-anchor="start" stroke="none" fill="#000">Audit</text>
  <text x="24" y="592" font-size="12" text-anchor="start" stroke="none" fill="#666" font-weight="600" font-family="ui-monospace, SFMono-Regular, monospace">RECENT</text>
  <rect x="24" y="616" width="16" height="16" rx="3" fill="#fff" stroke="#000" stroke-width="1.5" />
  <text x="52" y="629" font-size="14" text-anchor="start" stroke="none" fill="#666">PAP-670 clean up left nav</text>
  <rect x="24" y="648" width="16" height="16" rx="3" fill="#fff" stroke="#000" stroke-width="1.5" />
  <text x="52" y="661" font-size="14" text-anchor="start" stroke="none" fill="#666">PAP-664 destructive token</text>
  <rect x="24" y="680" width="16" height="16" rx="3" fill="#fff" stroke="#000" stroke-width="1.5" />
  <text x="52" y="693" font-size="14" text-anchor="start" stroke="none" fill="#666">PAP-659 connectors UX</text>
  <rect x="0" y="744" width="240" height="56" rx="0" fill="#e6e6e6" stroke="#000" stroke-width="1.5" />
  <circle cx="32" cy="772" r="10" fill="#e6e6e6" stroke="#000" stroke-width="1.5" />
  <text x="52" y="777" font-size="14" text-anchor="start" stroke="none" fill="#000">Scott</text>
  <line x1="240" y1="0" x2="240" y2="800" stroke="#000" stroke-width="1.5" />
  <text x="288" y="48" font-size="20" text-anchor="start" stroke="none" fill="#000" font-weight="bold">Tasks</text>
  <rect x="288" y="80" width="168" height="32" rx="6" fill="#fff" stroke="#000" stroke-width="1.5" />
  <rect x="300" y="88" width="16" height="16" rx="3" fill="#fff" stroke="#000" stroke-width="1.5" />
  <text x="328" y="101" font-size="14" text-anchor="start" stroke="none" fill="#000" font-weight="600">Views: Mine</text>
  <path d="M436,94 l4,4 l4,-4" fill="none" stroke="#666" stroke-width="1.5" />
  <rect x="472" y="80" width="88" height="32" rx="6" fill="#fff" stroke="#000" stroke-width="1.5" />
  <text x="516" y="101" font-size="14" text-anchor="middle" stroke="none" fill="#000">+ New</text>
  <rect x="584" y="80" width="280" height="32" rx="6" fill="#fff" stroke="#000" stroke-width="1.5" />
  <rect x="596" y="88" width="16" height="16" rx="3" fill="#fff" stroke="#000" stroke-width="1.5" />
  <text x="624" y="101" font-size="14" text-anchor="start" stroke="none" fill="#666">Search tasks…</text>
  <rect x="936" y="80" width="80" height="32" rx="6" fill="#fff" stroke="#000" stroke-width="1.5" />
  <text x="976" y="101" font-size="12" text-anchor="middle" stroke="none" fill="#666">Filter</text>
  <rect x="1024" y="80" width="80" height="32" rx="6" fill="#fff" stroke="#000" stroke-width="1.5" />
  <text x="1064" y="101" font-size="12" text-anchor="middle" stroke="none" fill="#666">Sort</text>
  <rect x="1112" y="80" width="80" height="32" rx="6" fill="#fff" stroke="#000" stroke-width="1.5" />
  <text x="1152" y="101" font-size="12" text-anchor="middle" stroke="none" fill="#666">Group</text>
  <rect x="1208" y="80" width="48" height="32" rx="6" fill="#fff" stroke="#000" stroke-width="1.5" />
  <rect x="1220" y="88" width="16" height="16" rx="3" fill="#fff" stroke="#000" stroke-width="1.5" />
  <rect x="288" y="128" width="168" height="24" rx="12" fill="#e6e6e6" stroke="#000" stroke-width="1.5" />
  <text x="372" y="145" font-size="12" text-anchor="middle" stroke="none" fill="#000">Mine · 3 unread</text>
  <rect x="472" y="128" width="136" height="24" rx="12" fill="#fff" stroke="#000" stroke-width="1.5" />
  <text x="540" y="145" font-size="12" text-anchor="middle" stroke="none" fill="#666">Mark all read</text>
  <rect x="624" y="128" width="104" height="24" rx="12" fill="#fff" stroke="#000" stroke-width="1.5" />
  <text x="676" y="145" font-size="12" text-anchor="middle" stroke="none" fill="#666">Archive</text>
  <text x="288" y="192" font-size="12" text-anchor="start" stroke="none" fill="#666" font-weight="600" font-family="ui-monospace, SFMono-Regular, monospace">TODAY</text>
  <line x1="288" y1="200" x2="1256" y2="200" stroke="#666" stroke-width="1" />
  <circle cx="296" cy="224" r="4" fill="#000" stroke="#000" stroke-width="1.5" />
  <circle cx="320" cy="224" r="7" fill="#fff" stroke="#000" stroke-width="1.5" />
  <text x="344" y="221" font-size="14" text-anchor="start" stroke="none" fill="#000">PAP-670 clean up left nav, make space for chat</text>
  <text x="344" y="238" font-size="12" text-anchor="start" stroke="none" fill="#666">assigned to me · in progress</text>
  <circle cx="1104" cy="224" r="9" fill="#e6e6e6" stroke="#000" stroke-width="1.5" />
  <text x="1248" y="228" font-size="12" text-anchor="end" stroke="none" fill="#666">2h</text>
  <line x1="288" y1="248" x2="1256" y2="248" stroke="#666" stroke-width="1" />
  <circle cx="296" cy="272" r="4" fill="#000" stroke="#000" stroke-width="1.5" />
  <circle cx="320" cy="272" r="7" fill="#fff" stroke="#000" stroke-width="1.5" />
  <text x="344" y="269" font-size="14" text-anchor="start" stroke="none" fill="#000">PAP-664 destructive button token</text>
  <text x="344" y="286" font-size="12" text-anchor="start" stroke="none" fill="#666">assigned to me · blocked</text>
  <circle cx="1104" cy="272" r="9" fill="#e6e6e6" stroke="#000" stroke-width="1.5" />
  <text x="1248" y="276" font-size="12" text-anchor="end" stroke="none" fill="#666">2h</text>
  <line x1="288" y1="296" x2="1256" y2="296" stroke="#666" stroke-width="1" />
  <circle cx="296" cy="320" r="4" fill="#000" stroke="#000" stroke-width="1.5" />
  <circle cx="320" cy="320" r="7" fill="#fff" stroke="#000" stroke-width="1.5" />
  <text x="344" y="317" font-size="14" text-anchor="start" stroke="none" fill="#000">PAP-659 simplify connectors UX</text>
  <text x="344" y="334" font-size="12" text-anchor="start" stroke="none" fill="#666">assigned to me · in review</text>
  <circle cx="1104" cy="320" r="9" fill="#e6e6e6" stroke="#000" stroke-width="1.5" />
  <text x="1248" y="324" font-size="12" text-anchor="end" stroke="none" fill="#666">2h</text>
  <line x1="288" y1="344" x2="1256" y2="344" stroke="#666" stroke-width="1" />
  <circle cx="320" cy="368" r="7" fill="#fff" stroke="#000" stroke-width="1.5" />
  <text x="344" y="365" font-size="14" text-anchor="start" stroke="none" fill="#000">PAP-649 local Sentry setup</text>
  <text x="344" y="382" font-size="12" text-anchor="start" stroke="none" fill="#666">assigned to me · blocked</text>
  <circle cx="1104" cy="368" r="9" fill="#e6e6e6" stroke="#000" stroke-width="1.5" />
  <text x="1248" y="372" font-size="12" text-anchor="end" stroke="none" fill="#666">2h</text>
  <text x="288" y="432" font-size="12" text-anchor="start" stroke="none" fill="#666" font-weight="600" font-family="ui-monospace, SFMono-Regular, monospace">EARLIER</text>
  <line x1="288" y1="440" x2="1256" y2="440" stroke="#666" stroke-width="1" />
  <circle cx="320" cy="464" r="7" fill="#fff" stroke="#000" stroke-width="1.5" />
  <text x="344" y="461" font-size="14" text-anchor="start" stroke="none" fill="#000">PAP-640 in-progress icon animation</text>
  <text x="344" y="478" font-size="12" text-anchor="start" stroke="none" fill="#666">assigned to me · done</text>
  <circle cx="1104" cy="464" r="9" fill="#e6e6e6" stroke="#000" stroke-width="1.5" />
  <text x="1248" y="468" font-size="12" text-anchor="end" stroke="none" fill="#666">2h</text>
  <line x1="288" y1="488" x2="1256" y2="488" stroke="#666" stroke-width="1" />
  <circle cx="320" cy="512" r="7" fill="#fff" stroke="#000" stroke-width="1.5" />
  <text x="344" y="509" font-size="14" text-anchor="start" stroke="none" fill="#000">PAP-628 Bucket A papercuts</text>
  <text x="344" y="526" font-size="12" text-anchor="start" stroke="none" fill="#666">assigned to me · done</text>
  <circle cx="1104" cy="512" r="9" fill="#e6e6e6" stroke="#000" stroke-width="1.5" />
  <text x="1248" y="516" font-size="12" text-anchor="end" stroke="none" fill="#666">2h</text>
  <line x1="288" y1="536" x2="1256" y2="536" stroke="#666" stroke-width="1" />
  <circle cx="320" cy="560" r="7" fill="#fff" stroke="#000" stroke-width="1.5" />
  <text x="344" y="557" font-size="14" text-anchor="start" stroke="none" fill="#000">PAP-612 relative timestamps</text>
  <text x="344" y="574" font-size="12" text-anchor="start" stroke="none" fill="#666">assigned to me · done</text>
  <circle cx="1104" cy="560" r="9" fill="#e6e6e6" stroke="#000" stroke-width="1.5" />
  <text x="1248" y="564" font-size="12" text-anchor="end" stroke="none" fill="#666">2h</text>
  <line x1="288" y1="584" x2="1256" y2="584" stroke="#666" stroke-width="1" />
  <circle cx="320" cy="608" r="7" fill="#fff" stroke="#000" stroke-width="1.5" />
  <text x="344" y="605" font-size="14" text-anchor="start" stroke="none" fill="#000">PAP-601 verify primary instance</text>
  <text x="344" y="622" font-size="12" text-anchor="start" stroke="none" fill="#666">assigned to me · done</text>
  <circle cx="1104" cy="608" r="9" fill="#e6e6e6" stroke="#000" stroke-width="1.5" />
  <text x="1248" y="612" font-size="12" text-anchor="end" stroke="none" fill="#666">2h</text>
  <line x1="288" y1="632" x2="1256" y2="632" stroke="#666" stroke-width="1" />
  <rect x="1000" y="672" width="256" height="64" rx="6" fill="none" stroke="#666" stroke-width="1.5" />
  <text x="1016" y="696" font-size="12" text-anchor="start" stroke="none" fill="#666">row hover reveals archive /</text>
  <text x="1016" y="716" font-size="12" text-anchor="start" stroke="none" fill="#666">mark unread (inbox behaviour)</text>
  <circle cx="464" cy="56" r="11" fill="#fff" stroke="#d33" stroke-width="1.5" />
  <text x="464" y="60" font-size="12" text-anchor="middle" stroke="none" fill="#d33" font-weight="bold">1</text>
  <circle cx="372" cy="112" r="11" fill="#fff" stroke="#d33" stroke-width="1.5" />
  <text x="372" y="116" font-size="12" text-anchor="middle" stroke="none" fill="#d33" font-weight="bold">2</text>
  <circle cx="608" cy="112" r="11" fill="#fff" stroke="#d33" stroke-width="1.5" />
  <text x="608" y="116" font-size="12" text-anchor="middle" stroke="none" fill="#d33" font-weight="bold">3</text>
  <circle cx="268" cy="224" r="11" fill="#fff" stroke="#d33" stroke-width="1.5" />
  <text x="268" y="228" font-size="12" text-anchor="middle" stroke="none" fill="#d33" font-weight="bold">4</text>
  <circle cx="268" cy="424" r="11" fill="#fff" stroke="#d33" stroke-width="1.5" />
  <text x="268" y="428" font-size="12" text-anchor="middle" stroke="none" fill="#d33" font-weight="bold">5</text>
  <circle cx="1128" cy="660" r="11" fill="#fff" stroke="#d33" stroke-width="1.5" />
  <text x="1128" y="664" font-size="12" text-anchor="middle" stroke="none" fill="#d33" font-weight="bold">6</text>
</svg>
